Coordinates
version=1
nRows=14
nColumns=36
inDegrees=yes

Units are S.I. units (second, meters, Newtons, ...)
If the header above contains a line with 'inDegrees', this indicates whether rotational values are in degrees (yes) or radians (no).

endheader
time	pelvis_tilt	pelvis_list	pelvis_rotation	pelvis_tx	pelvis_ty	pelvis_tz	hip_flexion_r	hip_adduction_r	hip_rotation_r	knee_angle_r	knee_angle_r_beta	ankle_angle_r	subtalar_angle_r	mtp_angle_r	hip_flexion_l	hip_adduction_l	hip_rotation_l	knee_angle_l	knee_angle_l_beta	ankle_angle_l	subtalar_angle_l	mtp_angle_l	lumbar_extension	lumbar_bending	lumbar_rotation	arm_flex_r	arm_add_r	arm_rot_r	elbow_flex_r	pro_sup_r	arm_flex_l	arm_add_l	arm_rot_l	elbow_flex_l	pro_sup_l
      1.08000000	     -4.53153351	      0.61533612	      1.88411214	      1.15346185	      1.03408132	     -0.29593782	     26.63149411	     -1.04614644	    -11.38889840	      1.55015212	      0.02705526	     -2.98849281	     10.12696755	     -7.34563171	     -7.35197845	      5.44651816	    -13.91932766	      0.57126110	      0.00997039	     10.33076200	      9.19744533	     -7.34563171	    -13.50079225	     -9.61271491	     -9.68879317	    -14.23955632	     -2.73469557	    -14.09173136	     39.79464878	    109.10601709	      7.49089312	    -17.68705747	    -23.05132858	     66.18990745	     98.64889737
      1.09000000	     -4.46636856	      1.09426094	      1.91235160	      1.16540144	      1.03156908	     -0.29711411	     26.59397356	     -1.40875346	    -12.11099838	      0.72032904	      0.01257211	     -1.92819759	     12.01703228	     -7.34808570	     -8.17370910	      5.94345830	    -13.35751906	      0.64760966	      0.01130292	     10.67196441	      8.93034180	     -7.34808570	    -13.33536325	     -9.63481552	    -10.05503068	    -14.13260180	     -2.52008038	    -14.60823527	     39.08474555	    108.93045407	      7.92629509	    -18.62077072	    -22.28858647	     66.01161284	     98.66754668
      1.10000000	     -4.46036415	      1.47180843	      2.00677989	      1.17745752	      1.02915824	     -0.29826675	     26.74362357	     -1.75952397	    -13.52899691	      0.49943934	      0.00871686	     -0.59491451	     14.47269532	     -7.35313285	     -8.88881728	      6.30561064	    -12.78751403	      0.77594768	      0.01354284	     10.64386100	      8.45636833	     -7.35313285	    -13.11030980	     -9.54983486	    -10.19738107	    -14.28503354	     -2.27467171	    -15.19157121	     38.74141590	    108.73019392	      8.59126180	    -19.34673009	    -21.51761529	     65.64619484	     98.68101286
      1.11000000	     -4.42793679	      1.77760595	      2.03624575	      1.18971798	      1.02694411	     -0.29910697	     26.73819281	     -1.95259470	    -14.10385857	      0.40542565	      0.00707601	      0.33171277	     15.52644237	     -7.35743340	     -9.60750163	      6.56028095	    -12.36652673	      0.97548806	      0.01702548	     10.73869237	      8.27545578	     -7.35743340	    -12.89725673	     -9.44383965	    -10.39899125	    -14.29003730	     -2.09023454	    -15.61056053	     38.29894614	    108.57418671	      9.02105704	    -20.09816173	    -20.89505630	     65.39849054	     98.73047989
      1.12000000	     -4.51369269	      1.96054530	      1.96081750	      1.20221641	      1.02475610	     -0.29966338	     26.76142531	     -1.94261908	    -14.14885269	      0.38994122	      0.00680576	      0.44451366	     15.50684687	     -7.35766925	    -10.15225688	      6.67080692	    -12.31064028	      1.24603377	      0.02174739	     10.73014752	      8.27552518	     -7.35766925	    -12.53146727	     -9.26594466	    -10.50445748	    -14.41922399	     -2.05536334	    -15.63925602	     38.21332437	    108.52879864	      9.27690637	    -20.51734742	    -20.96193518	     65.46287808	     98.72030735
      1.13000000	     -4.21523556	      2.02279246	      2.11549174	      1.21502881	      1.02341095	     -0.30024410	     26.14129542	     -1.88048359	    -13.94273123	      0.38623718	      0.00674111	      0.69473761	     15.21973902	     -7.35918597	    -11.04039020	      6.56236809	    -11.97763563	      1.71132056	      0.02986818	     10.85851399	      8.31326582	     -7.35918597	    -12.59035819	     -8.91415825	    -10.92638063	    -14.18230611	     -1.89503083	    -15.92898174	     37.57451059	    108.39488534	      9.38028009	    -21.35324339	    -20.29677822	     65.09203959	     98.76073013
      1.14000000	     -4.10987719	      1.94345051	      2.19907925	      1.22811678	      1.02203115	     -0.30062241	     25.66833794	     -1.64391982	    -13.55962959	      0.43352893	      0.00756651	      0.16380304	     14.81602250	     -7.36012882	    -11.66869017	      6.29178629	    -11.85863132	      2.28037784	      0.03980010	     10.73616417	      8.36100904	     -7.36012882	    -12.41756345	     -8.47860033	    -11.02201694	    -14.18500341	     -1.82259249	    -16.06185344	     37.25888464	    108.30655178	      9.52709674	    -21.77757673	    -19.97883303	     64.98022651	     98.79083178
      1.15000000	     -3.80334657	      1.75923768	      2.19158588	      1.24156140	      1.02114516	     -0.30062132	     24.91374969	     -1.20850210	    -12.85498673	      0.48182954	      0.00840951	     -1.37464759	     13.05646293	     -7.36209340	    -12.43256560	      5.87058756	    -12.20227627	      2.99674609	      0.05230309	     10.69861884	      8.50545007	     -7.36209340	    -12.39753992	     -7.98482362	    -10.98226851	    -14.07713609	     -1.73252152	    -16.31869233	     36.73980211	    108.16413206	      9.62172903	    -22.32542272	    -19.26823215	     64.68049458	     98.88854970
      1.16000000	     -3.84476290	      1.57350557	      2.10910863	      1.25501146	      1.01999775	     -0.30026411	     24.47293322	     -0.71052741	    -11.11660455	      0.53645467	      0.00936290	     -3.12119922	     10.35476136	     -7.36685814	    -12.69125080	      5.40233217	    -12.80126468	      3.98236773	      0.06950543	     10.78506460	      9.41498845	     -7.36685814	    -12.00212303	     -7.56027539	    -10.54775437	    -14.25651849	     -1.59567983	    -16.64102884	     36.57689058	    107.98663560	      9.87888009	    -22.59894046	    -18.56966578	     64.32381144	     99.14848850
      1.17000000	     -3.64392491	      1.23194817	      2.16014334	      1.26892713	      1.01955114	     -0.30005300	     23.74083883	     -0.18709721	    -10.54962708	      0.63038478	      0.01100229	     -4.85036355	      9.54580248	     -7.36887895	    -13.14622490	      4.73392917	    -13.17203457	      5.09032333	      0.08884290	     10.45040139	      9.43173299	     -7.36887895	    -11.87445347	     -6.92666537	    -10.49569780	    -14.21489995	     -1.53782937	    -16.78113401	     36.36005157	    107.87785075	      9.68230616	    -22.86293462	    -18.28438079	     64.21358380	     99.25363032
      1.18000000	     -3.60025394	      0.89530675	      2.14355869	      1.28303631	      1.01910523	     -0.29944064	     23.10228117	      0.40105863	     -9.16700644	      0.66300605	      0.01157164	     -6.72295718	      7.55847455	     -7.37364732	    -13.33202267	      4.01808965	    -13.76375314	      6.40447053	      0.11177910	     10.31980908	     10.16977662	     -7.37364732	    -11.54183864	     -6.37959706	    -10.24104993	    -14.28231820	     -1.48147566	    -16.90050234	     36.12707756	    107.76614877	      9.46759009	    -22.99971703	    -17.98953916	     64.11808742	     99.56601924
      1.19000000	     -3.45732690	      0.47455261	      2.20209789	      1.29747435	      1.01914925	     -0.29884214	     22.33646915	      0.98613694	     -8.46898008	      0.72771960	      0.01270110	     -8.30154799	      6.72540795	     -7.37723371	    -13.54189727	      3.18923222	    -14.10686605	      7.84794253	      0.13697244	      9.85699054	     10.23542270	     -7.37723371	    -11.32113837	     -5.73491835	    -10.08606641	    -14.26625720	     -1.43965854	    -16.93644598	     35.90586203	    107.68846255	      9.05237202	    -23.05696554	    -17.82659912	     64.12831336	     99.80312800
      1.20000000	     -3.34993785	      0.04470773	      2.28542244	      1.31210763	      1.01943269	     -0.29806184	     21.54737795	      1.56434336	     -7.67292006	      0.77908277	      0.01359756	     -9.54063090	      5.80078668	     -7.38189107	    -13.56226742	      2.30016184	    -14.40240669	      9.55853962	      0.16682799	      9.23744733	     10.19167931	     -7.38189107	    -11.04840604	     -5.11796970	     -9.96117423	    -14.22234494	     -1.40708402	    -16.87519314	     35.69558575	    107.65646071	      8.50937251	    -23.02743773	    -17.78639123	     64.15409145	    100.12883034
      1.21000000	     -3.14523184	     -0.43219017	      2.39519930	      1.32707054	      1.02016678	     -0.29720334	     20.64413116	      2.13581659	     -7.36749115	      0.91072292	      0.01589511	    -10.16379973	      5.67482652	     -7.38324294	    -13.56773213	      1.35010269	    -14.47106564	     11.43832566	      0.19963644	      8.30246761	      9.55794973	     -7.38324294	    -10.86329415	     -4.46111182	     -9.77240722	    -14.23985579	     -1.38375428	    -16.86226939	     35.53993251	    107.57736233	      7.92307025	    -22.96504091	    -17.68405825	     64.12124828	    100.18045238
